<?xml version='1.0' encoding='UTF-8'?>
<!-- Created with Inkscape (http://www.inkscape.org/) --><svg xmlns="http://www.w3.org/2000/svg" xmlns:svg="http://www.w3.org/2000/svg" version="1.2" id="svg1" width="512" height="512" viewBox="0 0 512 512" xml:space="preserve" baseProfile="tiny-ps"><title>All Done Sites logo</title><desc>Rounded square with RR monogram</desc><defs id="defs1"/><g id="g1" style="display:inline" transform="translate(-4.1701132,-40.146534)"><g id="g3" transform="matrix(0.8330872,0,0,0.85990493,1.6035485,36.790673)"><path style="display:inline;opacity:1;fill:none;fill-opacity:1;stroke:none;stroke-opacity:1" d="m 95.199996,597.97644 c -3.74,-0.59498 -9.9728,-2.00811 -13.850668,-3.14029 -3.877867,-1.13218 -9.277867,-2.9874 -11.999999,-4.1227 -2.722133,-1.13531 -7.570429,-3.50162 -10.773993,-5.25847 -3.203563,-1.75685 -8.639763,-5.28155 -12.080443,-7.83266 -3.44068,-2.55111 -8.870969,-7.25357 -12.067308,-10.44991 -3.19634,-3.19634 -7.929386,-8.66788 -10.51788,-12.15898 -2.588495,-3.4911 -6.024895,-8.70523 -7.636446,-11.58696 -1.611551,-2.88172 -4.280985,-8.72303 -5.932077,-12.9807 C 8.6900914,526.18811 6.4978789,518.94604 5.4695992,514.35228 L 3.5999999,506 V 301.6 97.2 L 5.0498995,90.4 C 5.8473442,86.66 7.7530124,79.833314 9.2847177,75.229588 10.816423,70.625861 13.567909,64.047219 15.399132,60.610384 c 1.831222,-3.436835 5.567505,-9.230768 8.30285,-12.875407 2.735346,-3.644639 8.428711,-9.929957 12.651922,-13.967373 4.223212,-4.037417 10.28126,-9.096579 13.46233,-11.242583 3.18107,-2.146004 8.10771,-5.074555 10.948089,-6.507891 2.840379,-1.433335 8.264276,-3.803267 12.053105,-5.266514 C 76.606256,9.2873689 83.46231,7.2598792 88.053102,6.2450834 L 96.399996,4.4 H 309.99999 c 176.19921,0 214.65057,0.1897648 219.59999,1.0837676 3.3,0.5960722 9.96,2.3457843 14.8,3.8882491 4.84,1.5424643 12.59801,4.7387453 17.24003,7.1028463 4.64202,2.364101 11.30202,6.406462 14.8,8.983024 3.49798,2.576563 9.26453,7.725983 12.81456,11.443158 3.55002,3.717174 7.90165,8.905101 9.67029,11.528726 1.76864,2.623626 4.51394,7.110229 6.10069,9.970229 1.58674,2.86 4.13224,8.44 5.65666,12.4 1.52443,3.96 3.61456,10.98 4.64473,15.6 l 1.87304,8.4 v 206.8 c 0,169.88004 -0.19167,207.72835 -1.07356,212 -0.59045,2.86 -2.15905,8.62 -3.48577,12.8 -1.32672,4.18 -4.24275,11.17959 -6.48007,15.55463 -2.23731,4.37505 -6.14461,10.71072 -8.68289,14.07926 -2.53827,3.36855 -7.79557,9.14896 -11.68288,12.84537 -3.88731,3.69641 -10.11141,8.74207 -13.83134,11.21259 -3.71992,2.47051 -9.46349,5.85216 -12.76349,7.51477 -3.3,1.66261 -9.06,4.07059 -12.8,5.35106 -3.74,1.28047 -10.04,3.10902 -14,4.06344 l -7.2,1.73531 -211.59999,0.15089 c -174.4821,0.12442 -212.79282,-0.0389 -218.399994,-0.93088 z M 152.4696,412.5278 l 0.0696,-72.6722 1.13039,-0.72582 c 0.62488,-0.40123 13.77446,-0.70953 29.40418,-0.68939 l 28.27379,0.0364 1.72621,1.89361 c 0.94942,1.04149 17.81621,34.09727 37.48177,73.4573 l 35.75556,71.56369 31.1779,-0.0957 c 17.14784,-0.0526 31.3994,-0.31727 31.67014,-0.58807 0.27073,-0.2708 -1.63615,-4.5908 -4.23751,-9.6 C 342.32028,470.09843 332.27371,450.7 322.59594,432 c -9.67777,-18.7 -22.18438,-42.82 -27.79247,-53.6 -5.60808,-10.78 -13.24849,-25.45811 -16.97867,-32.61802 -3.73019,-7.15992 -6.61219,-13.45992 -6.40445,-14 0.20774,-0.54009 2.89969,-1.63022 5.98211,-2.42251 3.08243,-0.79229 9.54639,-3.37982 14.36436,-5.75008 4.81798,-2.37025 11.61143,-6.434 15.09656,-9.03055 3.48513,-2.59655 9.13953,-7.66859 12.56533,-11.27121 3.42579,-3.60262 8.40715,-9.86779 11.06968,-13.9226 2.66253,-4.05481 6.26102,-10.34769 7.99664,-13.98417 1.73562,-3.63648 4.20588,-9.82553 5.48946,-13.75344 1.28358,-3.92792 2.90454,-10.13546 3.60213,-13.79454 0.69759,-3.65909 1.60772,-11.06288 2.0225,-16.45288 0.47299,-6.14645 0.47208,-13.49549 -0.002,-19.71252 -0.41613,-5.45188 -1.32168,-12.64825 -2.01234,-15.99193 -0.69066,-3.34369 -2.16408,-8.87306 -3.27428,-12.28749 -1.1102,-3.41443 -3.30997,-8.90806 -4.88837,-12.20806 -1.57841,-3.3 -4.6516,-8.64613 -6.82931,-11.88029 -2.17772,-3.23416 -6.53414,-8.60406 -9.68093,-11.93311 -3.14679,-3.32905 -8.58343,-8.15894 -12.08141,-10.73309 -3.49798,-2.57416 -10.2343,-6.66205 -14.9696,-9.08422 -4.7353,-2.42216 -12.85331,-5.81237 -18.04003,-7.53378 -5.18672,-1.72142 -12.1304,-3.76462 -15.4304,-4.54045 l -6,-1.41059 L 175.7998,113.64223 95.199601,113.2 95.199798,299.41546 95.199996,485.63092 123.8,485.41546 152.39999,485.2 Z M 152.19526,226.6 l 0.20473,-64.6 43.84689,-0.20685 43.84689,-0.20686 7.75311,1.5767 c 5.35786,1.08958 10.09569,2.73696 15.33572,5.33232 6.14634,3.04425 8.80912,4.98214 14.05776,10.23078 4.81352,4.81352 7.23032,8.01468 9.41799,12.47453 1.61856,3.29966 3.7186,8.87938 4.66675,12.39938 1.43564,5.32978 1.7306,8.67422 1.76393,20 0.0304,10.3191 -0.2943,14.95096 -1.34578,19.2 -0.7622,3.08 -2.30957,8.03488 -3.43861,11.01083 -1.12905,2.97596 -3.75624,8.01596 -5.8382,11.2 -2.08197,3.18405 -5.8301,7.654 -8.32918,9.93323 -2.49909,2.27923 -6.65934,5.42918 -9.24501,6.99989 -2.58567,1.57072 -7.13265,3.77103 -10.1044,4.8896 -2.97175,1.11856 -7.89827,2.55861 -10.94782,3.2001 -4.46318,0.93886 -13.96137,1.16635 -48.69707,1.16635 H 151.99053 Z M 528.09412,473.34183 C 524.63356,466.66382 511.54136,440.86 499.00035,416 c -12.54102,-24.86 -27.34652,-54.26065 -32.90111,-65.33477 -5.55459,-11.07413 -10.0972,-20.43413 -10.09469,-20.8 0.003,-0.36588 2.79251,-1.33323 6.2,-2.14968 3.40749,-0.81644 9.31455,-2.73186 13.1268,-4.25649 3.81226,-1.52462 9.83973,-4.45662 13.39439,-6.51555 3.55467,-2.05893 9.50071,-6.17415 13.21344,-9.14492 3.71273,-2.97078 9.12727,-8.37078 12.03232,-12 2.90504,-3.62923 7.05228,-10.04355 9.21608,-14.25406 2.1638,-4.21051 4.87706,-10.51051 6.02947,-14 1.15242,-3.48949 2.76405,-9.40453 3.58141,-13.14453 0.81737,-3.74 1.92243,-11.12 2.45569,-16.4 0.56273,-5.57169 0.77117,-13.79615 0.49674,-19.6 -0.26007,-5.5 -1.06562,-13.42 -1.79012,-17.6 -0.7245,-4.18 -2.57921,-11.52912 -4.12157,-16.33137 -1.54236,-4.80226 -4.74575,-12.54226 -7.11863,-17.2 -2.37289,-4.65775 -7.02514,-11.97846 -10.33834,-16.26826 -3.3132,-4.28979 -8.44461,-9.81995 -11.40313,-12.28923 -2.95851,-2.46928 -7.7884,-6.05381 -10.73307,-7.96561 -2.94467,-1.9118 -7.57684,-4.59812 -10.2937,-5.96958 -2.71686,-1.37147 -9.12758,-3.88133 -14.24605,-5.57747 -5.11846,-1.69615 -12.9063,-3.65822 -17.3063,-4.36016 l -8,-1.27626 -56.43934,-0.18103 -56.43933,-0.18103 5.63934,3.47247 c 3.10163,1.90986 7.07934,4.65278 8.83934,6.09537 1.76,1.44259 5.3301,4.81282 7.93356,7.48941 2.60345,2.67658 6.43199,7.41278 8.50786,10.52488 2.07587,3.1121 5.32733,9.044 7.22548,13.182 l 3.45117,7.52364 31.64096,0.30999 31.64096,0.30999 6,1.80087 c 3.3,0.99047 8.87942,3.30623 12.39872,5.14612 4.45325,2.32817 8.23212,5.1695 12.42886,9.34526 4.70821,4.68466 6.7487,7.49071 9.30786,12.8 1.80274,3.74 3.85021,8.96 4.54993,11.6 0.69972,2.64 1.58565,8.2392 1.96872,12.44266 0.38307,4.20347 0.42615,11.40347 0.0957,16 -0.33043,4.59654 -1.36282,11.41734 -2.29421,15.15734 -0.93138,3.74 -3.12281,9.68919 -4.86983,13.22043 -1.74703,3.53123 -5.12014,8.76215 -7.49582,11.62427 -2.37567,2.86211 -6.50031,6.73366 -9.16586,8.60344 -2.66555,1.86978 -7.11392,4.45498 -9.88527,5.74489 -2.77135,1.28991 -7.19882,2.9699 -9.83882,3.7333 l -4.8,1.38802 -32.62101,0.29173 -32.62102,0.29174 -2.0951,3.35109 c -1.15231,1.8431 -4.05661,6.32124 -6.454,9.95142 -2.39739,3.63018 -7.83513,10.2576 -12.08387,14.72759 -4.24875,4.47 -10.65762,10.31985 -14.24194,12.99967 -3.58432,2.67983 -7.12272,5.23241 -7.86312,5.67241 -0.90696,0.53898 10.48544,0.72048 34.91694,0.55628 19.94472,-0.13405 37.35325,-0.0427 38.68563,0.20295 l 2.42251,0.44668 36.57462,73.17805 36.57462,73.17804 31.1959,-0.0392 31.1959,-0.0392 z" id="path1"/><path style="display:inline;fill:#007cbf;fill-opacity:1" d="M 102.90931,597.86874 C 81.02351,596.84141 59.421785,587.98069 41.016962,572.48138 25.290308,559.23745 13.841689,541.41365 7.3481785,520.06409 L 4.5234863,510.77699 4.307514,303.82749 4.0915417,96.877998 5.7213809,89.715811 C 10.508729,68.678227 18.290822,53.565562 31.648053,39.366741 47.924337,22.064949 64.5552,12.479815 88.334044,6.6959862 L 97.994537,4.346223 312.11339,4.7388493 c 236.66331,0.4339657 216.27647,-0.01793 232.09975,5.1447282 16.86611,5.5029025 31.45108,14.2747395 43.09493,25.9185885 14.36333,14.363328 23.00999,30.705636 28.24182,53.377408 1.51259,6.554736 1.52813,8.393902 1.44533,171.138566 -0.046,90.48194 -0.3288,184.69867 -0.62837,209.37052 l -0.54466,44.8579 -2.06506,6.78523 c -8.3398,27.40248 -24.07862,47.6951 -48.07189,61.98078 -9.11982,5.42999 -18.08123,9.05772 -31.37488,12.7011 l -9.46602,2.59435 -205.87859,-0.13077 C 205.73252,598.40533 108.50713,598.1315 102.90931,597.86874 Z M 132.8073,485.52086 h 19.86036 v -72.70824 c 0,-50.01868 0.24731,-72.86109 0.79249,-73.19804 0.43588,-0.26938 13.42425,-0.67981 28.86306,-0.91206 l 28.07055,-0.42228 1.99131,2.36653 c 1.09521,1.30159 18.04667,34.42734 37.66989,73.61277 l 35.67859,71.24624 31.49958,0.008 c 26.19569,0.006 31.56728,-0.16885 31.90157,-1.04001 0.50127,-1.30625 -0.6286,-3.55285 -38.1477,-75.85172 -39.84831,-76.78724 -39.56013,-76.20823 -38.31841,-76.9915 0.55129,-0.34774 3.20753,-1.34298 5.90277,-2.21164 36.08773,-11.63087 62.55949,-43.51272 69.76193,-84.01932 1.67072,-9.39615 2.26998,-29.09398 1.1812,-38.82659 -3.91485,-34.99487 -21.1798,-61.69051 -50.21048,-77.6371 -8.04064,-4.41673 -18.90934,-8.6911 -30.70509,-12.07548 l -10.66568,-3.06016 -81.65849,-0.48022 -81.658495,-0.48022 v 186.83356 186.83357 l 9.165335,-0.49281 c 5.04094,-0.27106 18.1025,-0.49282 29.02571,-0.49282 z m 380.66377,0 h 21.30354 l -15.79448,-31.09897 c -24.6937,-48.62132 -62.59477,-124.35329 -62.33918,-124.56292 0.12714,-0.10426 3.96304,-1.27475 8.52422,-2.60108 18.60968,-5.4114 37.04594,-16.78395 47.52988,-29.31915 11.17756,-13.36454 18.86174,-31.29634 21.7143,-50.67248 3.35337,-22.7779 1.98624,-43.20688 -4.1864,-62.55724 -12.35358,-38.72673 -40.2479,-62.7344 -81.46455,-70.11367 -8.07177,-1.44514 -11.18745,-1.50862 -65.00853,-1.32456 l -56.53043,0.19332 6.39797,4.05587 c 7.29449,4.62419 18.16176,14.84361 23.09324,21.71655 1.84011,2.56453 5.38343,8.75606 7.87404,13.75893 l 4.52837,9.09613 h 31.11004 31.11003 l 6.54605,2.21271 c 12.73373,4.30427 22.08031,10.26759 28.61057,18.25416 3.14557,3.84705 7.33638,11.9643 9.47883,18.35972 2.14092,6.39087 3.43595,18.92475 2.88583,27.93068 -1.85704,30.40171 -15.50378,50.30194 -40.4608,59.00161 l -6.41587,2.23648 -33.43483,0.56241 -33.43483,0.56241 -4.17904,6.49634 c -8.98188,13.96236 -19.88648,25.98954 -31.74681,35.01497 l -7.10602,5.40752 5.57698,0.5871 c 3.06733,0.3229 17.28149,0.51402 31.58701,0.4247 14.30553,-0.0893 28.97882,-0.0991 32.60731,-0.0217 l 6.59726,0.14074 36.75282,73.59709 36.75281,73.59709 10.10857,-0.46739 c 5.55971,-0.25707 19.69516,-0.4674 31.4121,-0.4674 z" id="path2"/><path style="display:inline;fill:#007cbf;fill-opacity:1" d="m 152.66766,226.55127 v -64.45968 h 44.38428 44.38428 l 7.44734,1.87034 c 4.09603,1.02869 10.62444,3.43762 14.50758,5.35318 5.7642,2.84349 8.21286,4.63543 13.33904,9.76162 5.19667,5.19667 6.86312,7.48994 9.66922,13.30621 4.51869,9.36601 5.75151,14.66712 6.25902,26.91356 0.52277,12.6149 -0.4837,21.26039 -3.54261,30.43085 -3.22569,9.67042 -7.43157,16.44779 -14.62631,23.56887 -7.2405,7.16637 -13.34882,10.88945 -23.05905,14.05471 -9.61544,3.13436 -17.29735,3.58067 -62.38642,3.62459 l -36.37637,0.0354 z" id="path3"/></g></g></svg>